<svg viewBox="0 0 18 17" version="1.1" xmlns="http://www.w3.org/2000/svg" xmlns:xlink="http://www.w3.org/1999/xlink">
    <g id="Version-4.2" stroke="none" stroke-width="1" fill-rule="evenodd">
      <g id="dark" transform="translate(-301.000000, -899.000000)">
        <g id="Menu-About" transform="translate(301.000000, 899.000000)">
          <g id="Group-3" transform="translate(0.000000, 0.076404)">
            <path d="M8.94392903,16.0230274 C4.53663871,16.0230274 0.952316129,12.6539636 0.952316129,8.51176149 C0.952316129,4.36955936 4.53663871,0.998676383 8.94392903,0.998676383 C13.3510258,0.998676383 16.9374774,4.36955936 16.9374774,8.51176149 C16.9374774,12.6539636 13.3510258,16.0230274 8.94392903,16.0230274 M8.94392903,0.105474255 C4.01231613,0.105474255 5.80645146e-05,3.87657 5.80645146e-05,8.51176149 C5.80645146e-05,13.146953 4.01231613,16.9180487 8.94392903,16.9180487 C13.8753484,16.9180487 17.8878,13.146953 17.8878,8.51176149 C17.8878,3.87657 13.8753484,0.105474255 8.94392903,0.105474255" id="Fill-1"/>
          </g>
          <path d="M8.94392903,7.40935723 C8.68070323,7.40935723 8.4678,7.61128277 8.4678,7.85686787 L8.4678,12.2009955 C8.4678,12.4465806 8.68070323,12.6485062 8.94392903,12.6485062 C9.20696129,12.6485062 9.42005806,12.4465806 9.42005806,12.2009955 L9.42005806,7.85686787 C9.42005806,7.61128277 9.20696129,7.40935723 8.94392903,7.40935723" id="Fill-4"/>
          <path d="M8.94392903,4.76251372 C8.54328387,4.76251372 8.21599355,5.06994989 8.21599355,5.44651372 C8.21599355,5.82307755 8.54328387,6.12869457 8.94392903,6.12869457 C9.34438065,6.12869457 9.67167097,5.82307755 9.67167097,5.44651372 C9.67167097,5.06994989 9.34438065,4.76251372 8.94392903,4.76251372" id="Fill-6"/>
        </g>
      </g>
    </g>
  </svg>
  