<svg viewBox="0 0 32 32" version="1.1" xmlns="http://www.w3.org/2000/svg" xmlns:xlink="http://www.w3.org/1999/xlink">
    <g id="Group-Chat" stroke="none" stroke-width="1" fill-rule="evenodd">
      <g id="Group-6" transform="translate(3.000000, 7.000000)">
        <path d="M4.68333333,9.76529577 L6.24077381,9.76529577 L6.24077381,8.21750704 L4.68333333,8.21750704 L4.68333333,9.76529577 Z M6.3702381,7.35887324 L4.55386905,7.35887324 C4.14880952,7.35887324 3.81934524,7.68629577 3.81934524,8.08884507 L3.81934524,9.89395775 C3.81934524,10.296507 4.14880952,10.6242254 4.55386905,10.6242254 L6.3702381,10.6242254 C6.77529762,10.6242254 7.10505952,10.296507 7.10505952,9.89395775 L7.10505952,8.08884507 C7.10505952,7.68629577 6.77529762,7.35887324 6.3702381,7.35887324 Z" id="Fill-1"/>
        <path d="M11.5285714,9.76529577 L13.0860119,9.76529577 L13.0860119,8.21750704 L11.5285714,8.21750704 L11.5285714,9.76529577 Z M13.2154762,7.35887324 L11.3991071,7.35887324 C10.9940476,7.35887324 10.6645833,7.68629577 10.6645833,8.08884507 L10.6645833,9.89395775 C10.6645833,10.296507 10.9940476,10.6242254 11.3991071,10.6242254 L13.2154762,10.6242254 C13.6205357,10.6242254 13.9502976,10.296507 13.9502976,9.89395775 L13.9502976,8.08884507 C13.9502976,7.68629577 13.6205357,7.35887324 13.2154762,7.35887324 Z" id="Fill-3"/>
        <path d="M18.3738095,9.76529577 L19.93125,9.76529577 L19.93125,8.21750704 L18.3738095,8.21750704 L18.3738095,9.76529577 Z M20.0607143,7.35887324 L18.2443452,7.35887324 C17.8392857,7.35887324 17.5098214,7.68629577 17.5098214,8.08884507 L17.5098214,9.89395775 C17.5098214,10.296507 17.8392857,10.6242254 18.2443452,10.6242254 L20.0607143,10.6242254 C20.4657738,10.6242254 20.7955357,10.296507 20.7955357,9.89395775 L20.7955357,8.08884507 C20.7955357,7.68629577 20.4657738,7.35887324 20.0607143,7.35887324 Z" id="Fill-4"/>
        <path d="M23.4316071,14.5165901 C23.4316071,15.3625056 22.7381548,16.0516606 21.8869643,16.0516606 L19.7917262,16.0516606 C19.4342857,16.0516606 19.1458929,16.338562 19.1458929,16.6934915 L19.1458929,18.5953225 L16.8691071,16.2468718 C16.7500595,16.1226465 16.580119,16.0516606 16.4048214,16.0516606 L2.8214881,16.0516606 C1.97029762,16.0516606 1.27684524,15.3625056 1.27684524,14.5165901 L1.27684524,2.8364493 C1.27684524,1.9905338 1.97029762,1.30137887 2.8214881,1.30137887 L21.8869643,1.30137887 C22.7381548,1.30137887 23.4316071,1.9905338 23.4316071,2.8364493 L23.4316071,14.5165901 Z M21.8869643,0.0206746479 L15.6250595,0.0206746479 L15.6250595,-2.95774648e-05 L14.3360714,-2.95774648e-05 L14.3360714,0.0206746479 L2.8214881,0.0206746479 C1.34529762,0.0206746479 0.128035714,1.1505338 5.95238095e-05,2.58504085 L5.95238095e-05,14.7679986 C0.128035714,16.2025056 1.34529762,17.3323648 2.8214881,17.3323648 L16.1310119,17.3323648 L19.3274405,20.6302521 C19.4494643,20.760393 19.6188095,20.8284211 19.7917262,20.8284211 C19.8720833,20.8284211 19.955119,20.8136324 20.0327976,20.7810972 C20.2765476,20.6834915 20.4372619,20.4498296 20.4372619,20.1865901 L20.4372619,17.3323648 L21.8869643,17.3323648 C23.4494643,17.3323648 24.7202976,16.069407 24.7202976,14.5165901 L24.7202976,2.8364493 C24.7202976,1.28363239 23.4494643,0.0206746479 21.8869643,0.0206746479 Z" id="Fill-5"/>
      </g>
    </g>
  </svg>
  