<svg xmlns="http://www.w3.org/2000/svg" x="0px" y="0px" viewBox="0 0 172 172" style="fill:#000000">
    <g fill-rule="nonzero" stroke="none" stroke-width="1" stroke-linecap="butt" stroke-linejoin="miter" stroke-miterlimit="10" stroke-dasharray="" stroke-dashoffset="0" style="mix-blend-mode:normal">
      <path d="M0,172v-172h172v172z" fill="none"/>
      <g>
        <path d="M86,6.88c-43.65603,0 -79.12,35.46397 -79.12,79.12c0,43.65603 35.46397,79.12 79.12,79.12c43.65603,0 79.12,-35.46397 79.12,-79.12c0,-43.65603 -35.46397,-79.12 -79.12,-79.12zM86,13.76c39.93779,0 72.24,32.30221 72.24,72.24c0,39.93779 -32.30221,72.24 -72.24,72.24c-39.93779,0 -72.24,-32.30221 -72.24,-72.24c0,-39.93779 32.30221,-72.24 72.24,-72.24zM86.99437,43.02687c-12.8312,0 -21.33896,7.77483 -23.19312,19.61875c-0.1204,0.74304 0.24461,1.23335 0.98765,1.35719l7.7736,1.3639c0.74304,0.12384 1.23335,-0.24805 1.35719,-0.98765c1.4792,-7.52672 5.91858,-11.72422 12.8261,-11.72422c7.0348,0 11.96609,4.44426 11.96609,11.47562c0,4.1968 -1.4778,7.03351 -5.79156,12.95375l-8.27078,11.34797c-2.59032,3.58104 -3.69531,6.17297 -3.69531,11.11281v5.0525c0,0.7396 0.48993,1.23657 1.22953,1.22281h8.14312c0.7396,0 1.22953,-0.48993 1.22953,-1.22953v-3.94391c0,-4.19336 0.74508,-5.9218 3.21156,-9.25172l8.26406,-11.35469c4.1968,-5.79984 6.28875,-10.11397 6.28875,-16.03765c0,-12.21544 -9.00673,-20.97594 -22.32641,-20.97594zM81.57235,115.21313c-0.74304,0 -1.23625,0.49665 -1.23625,1.23625v10.60891c0,0.7396 0.48977,1.22953 1.23625,1.22953h9.37937c0.73616,0 1.22953,-0.48649 1.22953,-1.22953v-10.60891c0,-0.73616 -0.48993,-1.23625 -1.22953,-1.23625z"/>
      </g>
    </g>
  </svg>
  