<svg width="24px" height="24px" viewBox="-1.14 0 30 30" id="_19_-_Lock" data-name="19 - Lock" xmlns="http://www.w3.org/2000/svg">
    <path id="Path_201" data-name="Path 201" d="M29.857,28V14a3,3,0,0,0-3-3H5.143a3,3,0,0,0-3,3V28a3,3,0,0,0,3,3H26.857A3,3,0,0,0,29.857,28Zm-2-14V28a1,1,0,0,1-1,1H5.143a1,1,0,0,1-1-1V14a1,1,0,0,1,1-1H26.857A1,1,0,0,1,27.857,14Z" transform="translate(-2.143 -1)" fill-rule="evenodd"/>
    <path id="Path_202" data-name="Path 202" d="M16,17.428A3.571,3.571,0,1,0,19.571,21,3.573,3.573,0,0,0,16,17.428Zm0,2A1.571,1.571,0,1,1,14.429,21,1.573,1.573,0,0,1,16,19.428Z" transform="translate(-2.143 -1)" fill-rule="evenodd"/>
    <path id="Path_203" data-name="Path 203" d="M6.949,13,7,13l.043-.005A1.023,1.023,0,0,0,8,11.988V11a8,8,0,0,1,8-8h0a8,8,0,0,1,8,8v1c0,.023,0,.047,0,.07V12.1l0,.024a.89.89,0,0,0,.229.52A1,1,0,0,0,25,13a1.047,1.047,0,0,0,1-1.012V11A10,10,0,0,0,16,1h0A10,10,0,0,0,6,11v1c0,.023,0,.047,0,.07V12.1l0,.024a.89.89,0,0,0,.229.52A1,1,0,0,0,6.949,13Z" transform="translate(-2.143 -1)" fill-rule="evenodd"/>
  </svg>
  