<svg width="24px" height="24px" viewBox="0 0 24 24" version="1.1" xmlns="http://www.w3.org/2000/svg" xmlns:xlink="http://www.w3.org/1999/xlink">
    <!--Generator: sketchtool 52.5 (67469) - http://www.bohemiancoding.com/sketch-->
      <g id="Version-4.2" stroke="none" stroke-width="1" fill-rule="evenodd">
        <g id="dark" transform="translate(-125.000000, -994.000000)">
          <g id="Menu-LightMode" transform="translate(125.000000, 994.000000)">
            <path d="M6.128875,15.7629375 C6.0241875,15.599875 5.806875,15.5525 5.6435625,15.65725 C5.4805,15.7621875 5.433125,15.9795 5.5378125,16.1425625 C6.95875,18.3545 9.3745,19.6750625 12,19.6750625 C16.2319375,19.6750625 19.6750625,16.2319375 19.6750625,12 C19.6750625,7.7680625 16.2319375,4.3249375 12,4.3249375 C7.7680625,4.3249375 4.3249375,7.7680625 4.3249375,12 C4.3249375,12.8981875 4.47875,13.7783125 4.78225,14.6155 C4.848375,14.797875 5.0498125,14.8918125 5.2321875,14.8259375 C5.4145625,14.75975 5.5088125,14.558375 5.442625,14.376 C5.167,13.6159375 5.027375,12.8163125 5.027375,12 C5.027375,8.15525 8.15525,5.027375 12,5.027375 C15.84475,5.027375 18.972625,8.15525 18.972625,12 C18.972625,15.84475 15.84475,18.972625 12,18.972625 C9.61475,18.972625 7.4199375,17.7726875 6.128875,15.7629375" id="Fill-1"/>
            <g id="Group-5">
              <path d="M23.8356937,11.63205 L21.4277562,9.4731125 L22.4350687,6.399425 C22.4787562,6.2661125 22.4633812,6.1198625 22.3933187,5.9983 C22.3230062,5.876925 22.2038812,5.7907375 22.0663812,5.761925 L18.9001312,5.0998625 L18.7966312,4.6042375 C18.7568187,4.4143 18.5703187,4.2927375 18.3808812,4.3322375 C18.1909437,4.37205 18.0693187,4.5581125 18.1088812,4.74805 L18.2405062,5.377175 C18.2807562,5.5693 18.4308812,5.7194875 18.6230687,5.7594875 L21.6950687,6.4018625 L20.7180062,9.38355 C20.6570062,9.56955 20.7116937,9.774425 20.8576937,9.9052375 L23.1938187,11.9999875 L20.8576937,14.0947375 C20.7116937,14.2256125 20.6570062,14.430425 20.7180062,14.616425 L21.6948187,17.598175 L18.6228187,18.2404875 C18.4306937,18.2804875 18.2805062,18.430675 18.2405062,18.62305 L17.5981312,21.6948 L14.6164437,20.7179875 C14.4304437,20.6569875 14.2253187,20.711675 14.0947562,20.857675 L12.0000062,23.1938625 L9.90525625,20.857675 C9.77444375,20.711925 9.56956875,20.6569875 9.38356875,20.7179875 L6.40188125,21.69505 L5.75950625,18.62305 C5.71950625,18.430675 5.56931875,18.2804875 5.37694375,18.2404875 L2.30519375,17.598175 L3.28200625,14.616425 C3.34300625,14.430425 3.28831875,14.2256125 3.14231875,14.0947375 L0.80613125,11.9999875 L3.14231875,9.9052375 C3.28806875,9.774425 3.34300625,9.5698 3.28200625,9.38355 L2.30494375,6.4018625 L5.37694375,5.7594875 C5.56931875,5.7194875 5.71950625,5.5693 5.75950625,5.376925 L6.40188125,2.305175 L9.38356875,3.2819875 C9.56981875,3.3429875 9.77444375,3.2883 9.90525625,3.1423 L12.0000062,0.8061125 L14.0947562,3.1423 C14.2255687,3.2883 14.4304437,3.3429875 14.6164437,3.2819875 L17.5981312,2.304925 L17.7758812,3.1549875 C17.8154437,3.3449875 18.0019437,3.4668 18.1913187,3.4269875 C18.3813187,3.387175 18.5031937,3.201175 18.4633812,3.0112375 L18.2380062,1.9336125 C18.2094437,1.7961125 18.1233187,1.6769875 18.0016937,1.606925 C17.8801312,1.5366125 17.7338812,1.5214875 17.6005687,1.565175 L14.5268812,2.5722375 L12.3679437,0.1643 C12.2744437,0.0598 12.1401312,-1.25e-05 12.0000062,-1.25e-05 C11.8598812,-1.25e-05 11.7255687,0.0598 11.6320687,0.1643 L9.47313125,2.5722375 L6.39944375,1.565175 C6.26613125,1.5214875 6.11988125,1.5366125 5.99831875,1.606925 C5.87694375,1.6769875 5.79075625,1.7961125 5.76194375,1.9336125 L5.09988125,5.0998625 L1.93363125,5.761925 C1.79613125,5.7907375 1.67700625,5.876675 1.60669375,5.9983 C1.53663125,6.1198625 1.52150625,6.2661125 1.56494375,6.399425 L2.57225625,9.4728625 L0.16431875,11.63205 C0.05981875,11.72555 6.25e-06,11.8598625 6.25e-06,11.9999875 C6.25e-06,12.1401125 0.05981875,12.274425 0.16431875,12.367925 L2.57225625,14.5268625 L1.56519375,17.6006125 C1.52150625,17.7338625 1.53663125,17.8801125 1.60694375,18.0017375 C1.67700625,18.12305 1.79613125,18.2092375 1.93363125,18.23805 L5.09988125,18.900175 L5.76194375,22.066425 C5.79075625,22.2038625 5.87694375,22.3229875 5.99831875,22.39305 C6.11988125,22.4633625 6.26613125,22.4784875 6.39944375,22.4348 L9.47313125,21.4277375 L11.6320687,23.835675 C11.7258187,23.940175 11.8598812,23.9999875 12.0000062,23.9999875 C12.1401312,23.9999875 12.2744437,23.940175 12.3679437,23.835675 L14.5271312,21.4277375 L17.6005687,22.4348 C17.7338812,22.4784875 17.8801312,22.4633625 18.0016937,22.39305 C18.1230687,22.3229875 18.2092562,22.2038625 18.2380062,22.066425 L18.9001312,18.900175 L22.0666312,18.23805 C22.2038812,18.2092375 22.3230062,18.12305 22.3933187,18.0017375 C22.4633812,17.8801125 22.4787562,17.7338625 22.4350687,17.6006125 L21.4280062,14.5268625 L23.8356937,12.367925 C23.9401937,12.274425 24.0000062,12.1401125 24.0000062,11.9999875 C24.0000062,11.8598625 23.9401937,11.72555 23.8356937,11.63205" id="Fill-3"/>
            </g>
            <path d="M9.86425625,11.1638187 L9.86425625,10.2785687 C9.86425625,10.0845062 9.70700625,9.92725625 9.51294375,9.92725625 C9.31906875,9.92725625 9.16188125,10.0845062 9.16188125,10.2785687 L9.16188125,11.1638187 C9.16188125,11.3576937 9.31906875,11.5148812 9.51294375,11.5148812 C9.70700625,11.5148812 9.86425625,11.3576937 9.86425625,11.1638187" id="Fill-6"/>
            <path d="M14.8381375,11.1638187 L14.8381375,10.2785687 C14.8381375,10.0845062 14.6808875,9.92725625 14.487075,9.92725625 C14.29295,9.92725625 14.1357625,10.0845062 14.1357625,10.2785687 L14.1357625,11.1638187 C14.1357625,11.3576937 14.29295,11.5148812 14.487075,11.5148812 C14.6808875,11.5148812 14.8381375,11.3576937 14.8381375,11.1638187" id="Fill-8"/>
            <path d="M12,15.8432625 C12.8920625,15.8432625 13.681625,15.2751375 13.964625,14.4297 C14.026125,14.2456375 13.927,14.0466375 13.7431875,13.9851375 C13.5593125,13.923575 13.360125,14.0227 13.2985625,14.2067625 C13.1115625,14.7653875 12.589625,15.1408875 12,15.1408875 C11.410125,15.1408875 10.8884375,14.7653875 10.7014375,14.206575 C10.639875,14.0227 10.4409375,13.923575 10.2568125,13.9848875 C10.073,14.0466375 9.973625,14.2456375 10.035125,14.42945 C10.318125,15.2751375 11.1076875,15.8432625 12,15.8432625" id="Fill-10"/>
          </g>
        </g>
      </g>
    </svg>
    