<svg viewBox="0 0 21 15" xmlns="http://www.w3.org/2000/svg">
    <g id="Desktop-Eschool-V5" stroke="none" stroke-width="1" fill="#000" fill-rule="evenodd">
      <g id="Home" transform="translate(-1716.000000, -442.000000)">
        <g id="Group-4" transform="translate(1709.000000, 432.000000)">
          <g id="Group-30" transform="translate(7.656250, 10.937500)">
            <path d="M9.72070312,3.5546875 C7.7529375,3.5546875 6.15234375,5.096 6.15234375,6.99088542 C6.15234375,8.88577083 7.7529375,10.4270833 9.72070312,10.4270833 C11.6884687,10.4270833 13.2890625,8.88577083 13.2890625,6.99088542 C13.2890625,5.096 11.6884687,3.5546875 9.72070312,3.5546875 M9.72070312,11.1380208 C7.34589844,11.1380208 5.4140625,9.27773438 5.4140625,6.99088542 C5.4140625,4.70403646 7.34589844,2.84375 9.72070312,2.84375 C12.0955078,2.84375 14.0273437,4.70403646 14.0273437,6.99088542 C14.0273437,9.27773438 12.0955078,11.1380208 9.72070312,11.1380208" id="Fill-1"/>
            <path d="M2.83007812,2.60677083 L1.84570312,2.60677083 C1.6419375,2.60677083 1.4765625,2.44752083 1.4765625,2.25130208 C1.4765625,2.05508333 1.6419375,1.89583333 1.84570312,1.89583333 L2.83007812,1.89583333 C3.03384375,1.89583333 3.19921875,2.05508333 3.19921875,2.25130208 C3.19921875,2.44752083 3.03384375,2.60677083 2.83007812,2.60677083" id="Fill-3"/>
            <path d="M2.83007812,4.50260417 L1.84570312,4.50260417 C1.6419375,4.50260417 1.4765625,4.34335417 1.4765625,4.14713542 C1.4765625,3.95091667 1.6419375,3.79166667 1.84570312,3.79166667 L2.83007812,3.79166667 C3.03384375,3.79166667 3.19921875,3.95091667 3.19921875,4.14713542 C3.19921875,4.34335417 3.03384375,4.50260417 2.83007812,4.50260417" id="Fill-5"/>
            <path d="M2.83007812,6.3984375 L1.84570312,6.3984375 C1.6419375,6.3984375 1.4765625,6.2391875 1.4765625,6.04296875 C1.4765625,5.84675 1.6419375,5.6875 1.84570312,5.6875 L2.83007812,5.6875 C3.03384375,5.6875 3.19921875,5.84675 3.19921875,6.04296875 C3.19921875,6.2391875 3.03384375,6.3984375 2.83007812,6.3984375" id="Fill-7"/>
            <path d="M2.83007812,8.29427083 L1.84570312,8.29427083 C1.6419375,8.29427083 1.4765625,8.13502083 1.4765625,7.93880208 C1.4765625,7.74258333 1.6419375,7.58333333 1.84570312,7.58333333 L2.83007812,7.58333333 C3.03384375,7.58333333 3.19921875,7.74258333 3.19921875,7.93880208 C3.19921875,8.13502083 3.03384375,8.29427083 2.83007812,8.29427083" id="Fill-9"/>
            <path d="M2.83007812,10.1901042 L1.84570312,10.1901042 C1.6419375,10.1901042 1.4765625,10.0308542 1.4765625,9.83463542 C1.4765625,9.63841667 1.6419375,9.47916667 1.84570312,9.47916667 L2.83007812,9.47916667 C3.03384375,9.47916667 3.19921875,9.63841667 3.19921875,9.83463542 C3.19921875,10.0308542 3.03384375,10.1901042 2.83007812,10.1901042" id="Fill-11"/>
            <path d="M2.83007812,12.0859375 L1.84570312,12.0859375 C1.6419375,12.0859375 1.4765625,11.9266875 1.4765625,11.7304688 C1.4765625,11.53425 1.6419375,11.375 1.84570312,11.375 L2.83007812,11.375 C3.03384375,11.375 3.19921875,11.53425 3.19921875,11.7304688 C3.19921875,11.9266875 3.03384375,12.0859375 2.83007812,12.0859375" id="Fill-13"/>
            <path d="M17.5957031,2.60677083 L16.6113281,2.60677083 C16.4075625,2.60677083 16.2421875,2.44752083 16.2421875,2.25130208 C16.2421875,2.05508333 16.4075625,1.89583333 16.6113281,1.89583333 L17.5957031,1.89583333 C17.7994688,1.89583333 17.9648438,2.05508333 17.9648438,2.25130208 C17.9648438,2.44752083 17.7994688,2.60677083 17.5957031,2.60677083" id="Fill-15"/>
            <path d="M17.5957031,4.50260417 L16.6113281,4.50260417 C16.4075625,4.50260417 16.2421875,4.34335417 16.2421875,4.14713542 C16.2421875,3.95091667 16.4075625,3.79166667 16.6113281,3.79166667 L17.5957031,3.79166667 C17.7994688,3.79166667 17.9648438,3.95091667 17.9648438,4.14713542 C17.9648438,4.34335417 17.7994688,4.50260417 17.5957031,4.50260417" id="Fill-17"/>
            <path d="M17.5957031,6.3984375 L16.6113281,6.3984375 C16.4075625,6.3984375 16.2421875,6.2391875 16.2421875,6.04296875 C16.2421875,5.84675 16.4075625,5.6875 16.6113281,5.6875 L17.5957031,5.6875 C17.7994688,5.6875 17.9648438,5.84675 17.9648438,6.04296875 C17.9648438,6.2391875 17.7994688,6.3984375 17.5957031,6.3984375" id="Fill-19"/>
            <path d="M17.5957031,8.29427083 L16.6113281,8.29427083 C16.4075625,8.29427083 16.2421875,8.13502083 16.2421875,7.93880208 C16.2421875,7.74258333 16.4075625,7.58333333 16.6113281,7.58333333 L17.5957031,7.58333333 C17.7994688,7.58333333 17.9648438,7.74258333 17.9648438,7.93880208 C17.9648438,8.13502083 17.7994688,8.29427083 17.5957031,8.29427083" id="Fill-21"/>
            <path d="M17.5957031,10.1901042 L16.6113281,10.1901042 C16.4075625,10.1901042 16.2421875,10.0308542 16.2421875,9.83463542 C16.2421875,9.63841667 16.4075625,9.47916667 16.6113281,9.47916667 L17.5957031,9.47916667 C17.7994688,9.47916667 17.9648438,9.63841667 17.9648438,9.83463542 C17.9648438,10.0308542 17.7994688,10.1901042 17.5957031,10.1901042" id="Fill-23"/>
            <path d="M17.5957031,12.0859375 L16.6113281,12.0859375 C16.4075625,12.0859375 16.2421875,11.9266875 16.2421875,11.7304688 C16.2421875,11.53425 16.4075625,11.375 16.6113281,11.375 L17.5957031,11.375 C17.7994688,11.375 17.9648438,11.53425 17.9648438,11.7304688 C17.9648438,11.9266875 17.7994688,12.0859375 17.5957031,12.0859375" id="Fill-25"/>
            <path d="M0.73828125,13.2708333 L18.703125,13.2708333 L18.703125,0.7109375 L0.73828125,0.7109375 L0.73828125,13.2708333 Z M19.0722656,13.9817708 L0.369140625,13.9817708 C0.165375,13.9817708 0,13.8225208 0,13.6263021 L0,0.35546875 C0,0.15925 0.165375,0 0.369140625,0 L19.0722656,0 C19.2760312,0 19.4414062,0.15925 19.4414062,0.35546875 L19.4414062,13.6263021 C19.4414062,13.8225208 19.2760312,13.9817708 19.0722656,13.9817708 Z" id="Fill-27"/>
            <path d="M8.98217578,5.74257396 L8.98217578,8.21758438 L11.0021133,6.98007917 L8.98217578,5.74257396 Z M8.61303516,9.22048021 C8.55200391,9.22048021 8.49048047,9.20626146 8.43535547,9.17640208 C8.31723047,9.11383958 8.24389453,8.99440208 8.24389453,8.86501146 L8.24389453,5.09514687 C8.24389453,4.96528229 8.31723047,4.84584479 8.43535547,4.78375625 C8.55249609,4.72024583 8.69719922,4.72545937 8.81138672,4.79513125 L11.8875586,6.6805375 C11.9943633,6.74546979 12.0583477,6.85827187 12.0583477,6.98007917 C12.0583477,7.10188646 11.9943633,7.21468854 11.8875586,7.28009479 L8.81089453,9.16502708 C8.75084766,9.20199583 8.68194141,9.22048021 8.61303516,9.22048021 Z" id="Fill-29"/>
          </g>
        </g>
      </g>
    </g>
  </svg>
  