<svg xmlns="http://www.w3.org/2000/svg" xmlns:xlink="http://www.w3.org/1999/xlink" xmlns:svgjs="http://svgjs.com/svgjs" version="1.1" x="0" y="0" viewBox="0 0 511.984 511.984" style="enable-background:new 0 0 512 512" xml:space="preserve" class="">
    <g>
      <g xmlns="http://www.w3.org/2000/svg">
        <path d="m511.741 452.13-10.205-79.146c-6.931-53.614-44.423-63.791-77.502-72.771 0 0-2.231-.608-2.32-.631-3-.83-5.308-2.633-6.328-4.94l-3.812-8.662c30.781-19.647 54.053-54.95 54.053-85.574v-24.877c27.934-27.069 30.199-73.225 27.039-107.674-.231-2.538-.405-4.743-.555-6.649-.688-8.755-1.068-13.578-5.786-16.41-4.506-2.706-8.836-.818-13.848 1.367-2.404 1.048-5.396 2.353-9.299 3.734-11.346 3.992-24.38 5.752-41.036 5.528-4.123-.073-7.543 3.259-7.599 7.4-.055 4.142 3.258 7.543 7.4 7.599 18.465.249 33.152-1.781 46.226-6.382 3.608-1.277 6.538-2.5 8.843-3.495.049.603.098 1.221.146 1.834.154 1.96.333 4.228.571 6.84 2.326 25.357 2.409 70.654-22.023 95.032-3.175-.524-6.187-1.016-9.057-1.485-39.86-6.513-51.89-8.479-102.294-31.273-14.875-6.745-24.362 2.157-28.904 6.418-1.171 1.091-2.457 2.387-3.946 3.888-6.733 6.786-17.237 17.37-29.941 21.409-.029-22.633.493-37.855 13.206-49.027 2.985-2.605 6.515-4.96 10.802-7.204l.19-.1c3.365-1.767 5.807-3.393 6.57-8.246.049-.313.11-.719.246-1.309 1.296-5.808 3.22-10.764 5.724-14.741 11.97-19.081 38.903-16.819 70.092-14.2 4.125.346 7.754-2.719 8.101-6.846s-2.718-7.754-6.846-8.101c-33.052-2.776-67.229-5.646-84.047 21.167-3.414 5.423-5.992 11.969-7.653 19.412-.002.011-.005.021-.007.032-5.043 2.692-9.313 5.587-13.053 8.852-18.43 16.195-18.38 37.075-18.317 63.509.005 1.907.009 3.854.007 5.841v.004s0 .002 0 .004v28.148c0 30.694 23.375 66.092 54.256 85.714l-4.683 11.328c-.713 1.737-3.029 1.872-3.721 1.872h-111.718c-4.931-1.82-7.766-8.137-9.694-13.2 30.782-19.568 54.076-54.863 54.076-85.487v-28.063c0-33.605-10.676-62.071-30.873-82.318-18.01-18.055-42.263-28.228-68.291-28.646-.081-.001-.16-.001-.241 0-26.028.418-50.281 10.591-68.291 28.646-20.197 20.248-30.873 48.713-30.873 82.318v28.063c0 30.632 23.307 65.938 54.099 85.502-1.979 5.198-4.906 11.718-10.032 13.318-.308.069-.612.158-.91.266-4.414 1.181-9.253 2.485-14.092 3.912l-12.979-8.69c-14.885-9.936-35.099-5.921-45.069 8.962l-6.888 10.318c-8.656 12.968-6.728 29.953 3.727 40.687-1.758 5.496-3.078 11.53-3.935 18.021l-10.202 79.152c-.444 3.366-.647 8.282 2.698 12.098 3.313 3.779 8.089 4.263 11.88 4.263h49.471c.35.05.706.085 1.07.085s.719-.035 1.07-.085h59.392c4.142 0 7.5-3.358 7.5-7.5s-3.358-7.5-7.5-7.5h-52.961v-37.77c0-4.142-3.358-7.5-7.5-7.5s-7.5 3.358-7.5 7.5v37.77h-42.671l10.127-78.572c.487-3.691 1.142-7.191 1.957-10.478l8.947 5.99c2.074 1.399 4.467 2.125 6.921 2.125.811 0 1.628-.079 2.443-.24 3.292-.648 6.129-2.542 7.984-5.325l29.092-43.54c1.378-2.042 2.098-4.393 2.121-6.806 2.074-.58 4.125-1.139 6.122-1.677l39.452 26.706c5.624 4.16 10.537 6.24 15.45 6.24s9.826-2.08 15.45-6.24l39.457-26.709c32.279 8.766 60.018 16.7 65.609 59.929l10.136 78.604-42.705-.004v-37.776c0-4.142-3.358-7.5-7.5-7.5s-7.5 3.358-7.5 7.5v37.774l-59.339-.005c-4.142 0-7.5 3.358-7.5 7.5s3.357 7.5 7.5 7.5l65.807.005c.339.047.682.079 1.034.079.351 0 .694-.032 1.033-.079l269.87.023c3.791 0 8.567-.484 11.88-4.263 3.342-3.811 3.14-8.727 2.699-12.072zm-469.249-95.603-14.547-9.74c-3.855-2.573-6.482-6.522-7.395-11.118-.914-4.598.003-9.257 2.581-13.12l6.881-10.308c5.367-8.011 16.255-10.177 24.264-4.83l14.533 9.729zm103.319-279.922c38.762.678 80.3 28.32 84.015 87.283-10.22-2.389-15.269-7.542-20.182-12.557-5.402-5.514-11.379-11.616-22.158-11.616-2.687 0-5.672.379-9.021 1.241-4.624 1.191-8.572 2.243-12.001 3.158-10.638 2.836-15.977 4.259-20.653 4.259s-10.016-1.423-20.653-4.259c-3.43-.914-7.378-1.967-12.002-3.158-16.779-4.321-24.43 3.486-31.178 10.375-4.913 5.015-9.961 10.167-20.182 12.557 3.715-58.963 45.253-86.606 84.015-87.283zm-84.285 124.028v-21.406c16.912-2.862 25.044-11.15 31.166-17.398 5.894-6.015 8.332-8.506 16.723-6.346 4.577 1.178 8.485 2.22 11.879 3.125 11.901 3.172 17.875 4.765 24.517 4.765 6.641 0 12.615-1.593 24.517-4.766 3.395-.905 7.302-1.947 11.878-3.125 8.39-2.159 10.829.33 16.723 6.346 6.121 6.248 14.254 14.536 31.166 17.398v21.406c0 30.67-29.861 68.645-63.907 81.27-15.044 5.586-25.709 5.588-40.759-.001-34.041-12.623-63.903-50.599-63.903-81.268zm91.192 128.663c-.093.063-.184.127-.274.194-6.014 4.477-7.254 4.476-13.267 0-.09-.067-.181-.131-.274-.194l-33.091-22.4c3.897-4.181 6.376-9.288 8.097-13.547 2.082.944 4.18 1.828 6.301 2.615 9.212 3.421 17.405 5.131 25.6 5.131 8.193 0 16.387-1.71 25.595-5.13 2.13-.79 4.239-1.678 6.33-2.627 1.721 4.256 4.199 9.36 8.097 13.542zm128.858-128.89v-21.694c18.479-4.091 32.592-18.3 40.575-26.344 1.378-1.389 2.569-2.589 3.544-3.498 5.131-4.814 7.52-5.954 12.47-3.71 52.217 23.614 65.786 25.831 106.063 32.413 2.056.336 4.189.684 6.397 1.047v21.786c0 30.738-29.955 68.82-64.101 81.495-14.899 5.523-25.978 5.524-40.872.001-3.762-1.398-7.469-3.12-11.095-5.091-.441-.308-.918-.577-1.436-.791-.019-.008-.039-.013-.058-.021-28.581-16.21-51.487-48.712-51.487-75.593zm124.383 106.702-32.848 22.214c-.098.066-.195.135-.29.206-5.95 4.448-7.311 4.449-13.232.007-.098-.073-.197-.145-.299-.213l-31.991-21.634c1.111-1.34 2.032-2.853 2.719-4.523l4.067-9.839c2.098.953 4.213 1.846 6.35 2.64 9.229 3.422 17.44 5.133 25.651 5.133s16.424-1.711 25.656-5.134c2.23-.828 4.436-1.758 6.622-2.759l3.297 7.492c1.051 2.372 2.51 4.528 4.298 6.41zm48.074 146.357v-37.794c0-4.142-3.358-7.5-7.5-7.5s-7.5 3.358-7.5 7.5v37.793l-147.447-.012-10.384-80.526c-4.147-32.065-19.239-48.584-37.779-58.606h66.906l40.413 27.329c5.548 4.132 10.495 6.197 15.447 6.197 4.95 0 9.906-2.065 15.467-6.194l39.463-26.687c32.25 8.759 59.953 16.712 65.541 59.939l10.13 78.565z" data-original="#000000" style="" class=""/>
      </g>
    </g>
  </svg>
  