<svg version="1.0" xmlns="http://www.w3.org/2000/svg" viewBox="0 0 512.000000 512.000000" preserveAspectRatio="xMidYMid meet">
    <g transform="translate(0.000000,512.000000) scale(0.100000,-0.100000)" stroke="none">
      <path d="M266 4704 c-34 -11 -64 -31 -102 -68 -91 -92 -84 54 -84 -1716 0
  -1768 -7 -1625 83 -1714 91 -90 43 -86 942 -86 l783 0 -52 -157 -53 -158 -192
  -5 c-246 -6 -231 7 -231 -202 0 -145 1 -150 25 -173 l24 -25 1151 0 1151 0 24
  25 c24 23 25 28 25 173 0 209 15 196 -231 202 l-192 5 -53 157 -52 158 801 2
  802 3 50 27 c59 31 94 67 126 128 l24 45 3 1575 c3 1795 10 1643 -84 1737 -91
  91 140 83 -2398 82 -1962 0 -2247 -2 -2290 -15z m2214 -824 l0 -680 -203 0
  -202 0 -13 53 c-30 128 -127 266 -235 335 l-46 29 30 29 c17 16 47 63 67 103
  35 71 37 81 37 170 0 87 -3 102 -31 161 -38 81 -83 133 -151 177 -117 75 -260
  82 -387 19 -88 -43 -146 -102 -189 -194 -29 -61 -32 -76 -32 -163 0 -89 2 -99
  37 -170 20 -40 50 -87 67 -103 l30 -29 -46 -29 c-108 -69 -205 -207 -235 -335
  l-13 -53 -363 0 -362 0 2 644 3 644 25 27 c14 15 34 31 45 35 11 5 503 9 1093
  9 l1072 1 0 -680z m2362 642 l33 -32 3 -645 2 -645 -322 0 -323 0 -13 53 c-30
  128 -127 266 -235 335 l-46 29 30 29 c17 16 47 63 67 103 35 71 37 81 37 170
  0 87 -3 102 -31 161 -38 81 -83 133 -151 177 -117 75 -260 82 -387 19 -88 -43
  -146 -102 -189 -194 -29 -61 -32 -76 -32 -163 0 -89 2 -99 37 -170 20 -40 50
  -87 67 -103 l30 -29 -46 -29 c-108 -69 -205 -207 -235 -335 l-13 -53 -242 0
  -243 0 0 680 0 680 1085 -2 1085 -3 32 -33z m-3248 -374 c55 -16 138 -99 154
  -154 28 -94 8 -169 -63 -239 -51 -52 -102 -75 -165 -75 -124 0 -240 116 -240
  240 0 63 23 114 75 165 70 71 145 90 239 63z m2160 0 c86 -26 166 -136 166
  -228 0 -124 -116 -240 -240 -240 -63 0 -114 23 -165 75 -102 101 -102 229 0
  330 70 71 145 90 239 63z m-2070 -666 c88 -41 148 -100 191 -185 19 -38 35
  -76 35 -83 0 -12 -67 -14 -390 -14 -323 0 -390 2 -390 14 0 32 73 156 114 194
  48 45 125 87 183 102 71 18 186 5 257 -28z m2160 0 c88 -41 148 -100 191 -185
  19 -38 35 -76 35 -83 0 -12 -67 -14 -390 -14 -323 0 -390 2 -390 14 0 32 73
  156 114 194 48 45 125 87 183 102 71 18 186 5 257 -28z m-1364 -1122 l0 -680
  -203 0 -202 0 -13 53 c-30 128 -127 266 -235 335 l-46 29 30 29 c17 16 47 63
  67 103 35 71 37 81 37 170 0 87 -3 102 -31 161 -38 81 -83 133 -151 177 -117
  75 -260 82 -387 19 -88 -43 -146 -102 -189 -194 -29 -61 -32 -76 -32 -163 0
  -89 2 -99 37 -170 20 -40 50 -87 67 -103 l30 -29 -46 -29 c-108 -69 -205 -207
  -235 -335 l-13 -53 -362 0 -363 0 0 680 0 680 1120 0 1120 0 0 -680z m2400 0
  l0 -680 -323 0 -322 0 -13 53 c-30 128 -127 266 -235 335 l-46 29 30 29 c17
  16 47 63 67 103 35 71 37 81 37 170 0 87 -3 102 -31 161 -38 81 -83 133 -151
  177 -117 75 -260 82 -387 19 -88 -43 -146 -102 -189 -194 -29 -61 -32 -76 -32
  -163 0 -89 2 -99 37 -170 20 -40 50 -87 67 -103 l30 -29 -46 -29 c-108 -69
  -205 -207 -235 -335 l-13 -53 -242 0 -243 0 0 680 0 680 1120 0 1120 0 0 -680z
  m-3286 268 c86 -26 166 -136 166 -228 0 -124 -116 -240 -240 -240 -124 0 -240
  116 -240 240 0 63 23 114 75 165 70 71 145 90 239 63z m2160 0 c86 -26 166
  -136 166 -228 0 -124 -116 -240 -240 -240 -124 0 -240 116 -240 240 0 63 23
  114 75 165 70 71 145 90 239 63z m-2070 -666 c88 -41 148 -100 191 -185 19
  -38 35 -76 35 -83 0 -12 -67 -14 -390 -14 -323 0 -390 2 -390 14 0 32 73 156
  114 194 48 45 125 87 183 102 71 18 186 5 257 -28z m2160 0 c88 -41 148 -100
  191 -185 19 -38 35 -76 35 -83 0 -12 -67 -14 -390 -14 -323 0 -390 2 -390 14
  0 32 73 156 114 194 48 45 125 87 183 102 71 18 186 5 257 -28z m1035 -527
  c-4 -80 -6 -86 -37 -117 l-32 -33 -2250 0 -2250 0 -32 33 c-31 31 -33 37 -37
  117 l-3 85 2322 0 2322 0 -3 -85z m-1763 -477 l52 -158 -608 0 -609 0 50 148
  c27 81 51 153 54 160 3 10 110 12 506 10 l502 -3 53 -157z m484 -358 l0 -40
  -1040 0 -1040 0 0 40 0 40 1040 0 1040 0 0 -40z"/>
    </g>
  </svg>
  